<?xml version="1.0" encoding="utf-8"?>
<!DOCTYPE svg PUBLIC "-//W3C//DTD SVG 1.0//EN" "http://www.w3.org/TR/2001/REC-SVG-20010904/DTD/svg10.dtd">
<svg version="1.0" xmlns="http://www.w3.org/2000/svg" width="400px" height="400px" viewBox="0 0 600 600" preserveAspectRatio="xMidYMid meet">
 <g fill="#39414b">
  <path d="M290.1 561 c-11 -4 -68.4 -35.7 -99.6 -55 -21.4 -13.3 -33.2 -21.4 -48 -33.3 -32.6 -26.2 -50 -50.8 -57.9 -82.3 -4.9 -19.5 -4.9 -20.1 -4.2 -139.2 0.8 -118.7 0.7 -116.5 5.7 -126.5 5.5 -10.8 17.8 -20.4 34.8 -27.1 42.2 -16.6 140.3 -50.4 159.1 -54.7 7.3 -1.7 12.5 -2.2 22.5 -2.2 14.2 0.1 24.3 2.2 46 9.6 34 11.7 46.6 16.1 79.4 27.9 58.5 20.9 66.1 24.1 77.4 32.7 6.1 4.5 12 13.3 14.9 22 l2.3 6.6 0.3 106 c0.4 107.9 0.1 116.8 -3.4 137.4 -8.4 47.7 -39.4 84 -106.4 124.6 -29.1 17.7 -89.1 49.2 -101.9 53.6 -6.9 2.4 -14.1 2.4 -21 -0.1z m84 -147.1 c7 -1.5 13.8 -8.2 16 -15.4 2 -7.1 2.1 -116 0 -121.8 -1.9 -5.6 -6.9 -10.7 -12.8 -13.4 l-5.3 -2.3 0 -19.7 c0 -28.8 -3 -42.6 -12.5 -57.9 -15.6 -25 -47.6 -37.7 -74.5 -29.5 -12.5 3.8 -20.6 8.7 -29.5 17.6 -9.3 9.3 -14.8 18.9 -19.1 33 -2.5 8.5 -2.7 10.5 -3.2 32.8 l-0.4 23.9 -3.7 1.5 c-6.2 2.6 -10.2 6.3 -13 12.2 l-2.6 5.6 -0.3 54.8 c-0.2 46.9 -0.1 55.7 1.3 60.9 2.5 9.8 8.4 16.1 16.6 17.7 6.9 1.4 136.8 1.3 143 0z"/>
  <path d="M260 240.9 c0 -19.6 0.3 -24.5 1.8 -30 3.5 -12.5 9.4 -20 19.7 -25 5.5 -2.6 6.9 -2.9 16.7 -2.9 15.8 0 24.7 4 31.6 14.3 6.6 9.8 8.2 18.7 8.2 44.7 l0 21 -33.7 0 c-18.6 0 -36.2 0.3 -39 0.6 l-5.3 0.7 0 -23.4z"/>
 </g>
 <g fill="#adb6bd">
  <path d="M228.1 416.9 c-8.2 -1.6 -14.1 -7.9 -16.6 -17.7 -1.4 -5.2 -1.5 -14.3 -1.3 -63.9 l0.3 -57.8 2.6 -5.6 c2.8 -5.9 6.8 -9.6 13 -12.2 l3.7 -1.5 0.4 -23.9 c0.5 -22.3 0.7 -24.3 3.2 -32.8 7.9 -26.1 24.2 -43.1 48.6 -50.6 10.9 -3.4 30.3 -3.4 41 0 27.6 8.5 45.3 29.4 50.6 59.6 0.9 5.1 1.4 15.2 1.4 27.8 l0 19.7 5.3 2.3 c5.9 2.7 10.9 7.8 12.8 13.4 2.1 5.8 2 120.7 0 127.8 -2.2 7.2 -9 13.9 -16 15.4 -6.2 1.3 -142.1 1.4 -149 0z m106.9 -174.9 c0 -9.8 -0.5 -20.3 -1.1 -23.2 -4.4 -21.8 -16.4 -32.8 -35.7 -32.8 -16.4 0 -28.4 10.1 -33.4 27.9 -1.5 5.3 -1.8 10.2 -1.8 26.6 l0 20 36 -0.3 36 -0.2 0 -18z"/>
 </g>
</svg>